<?xml version="1.0" standalone="no"?>
<!DOCTYPE svg PUBLIC "-//W3C//DTD SVG 20010904//EN"
 "http://www.w3.org/TR/2001/REC-SVG-20010904/DTD/svg10.dtd">
<svg version="1.0" xmlns="http://www.w3.org/2000/svg"
 width="2000.000000pt" height="2000.000000pt" viewBox="0 0 2000.000000 2000.000000"
 preserveAspectRatio="xMidYMid meet">

<g transform="translate(0.000000,2000.000000) scale(0.100000,-0.100000)"
fill="#000000" stroke="none">
<path d="M9940 13198 c-23 -40 -45 -80 -51 -88 -5 -8 -15 -26 -22 -40 -7 -14
-25 -44 -40 -68 -15 -24 -32 -53 -38 -65 -5 -12 -21 -40 -34 -62 -14 -22 -31
-51 -38 -65 -7 -14 -25 -44 -40 -68 -15 -24 -32 -53 -38 -65 -5 -12 -21 -40
-34 -62 -14 -22 -31 -51 -38 -65 -7 -14 -25 -44 -40 -68 -15 -24 -32 -53 -38
-65 -5 -12 -20 -38 -32 -59 -12 -20 -44 -74 -70 -120 -26 -45 -52 -90 -58 -98
-5 -8 -15 -26 -22 -40 -7 -14 -25 -44 -40 -68 -15 -24 -32 -53 -38 -65 -5 -12
-21 -40 -34 -62 -14 -22 -31 -51 -38 -65 -7 -14 -25 -44 -40 -68 -15 -24 -32
-53 -38 -65 -5 -12 -21 -40 -34 -62 -14 -22 -31 -51 -38 -65 -7 -14 -25 -44
-40 -68 -15 -24 -32 -53 -38 -65 -5 -12 -20 -38 -32 -59 -12 -20 -44 -74 -70
-120 -26 -45 -52 -90 -58 -98 -5 -8 -15 -26 -22 -40 -7 -14 -25 -44 -40 -68
-15 -24 -32 -53 -38 -65 -5 -12 -21 -40 -34 -62 -14 -22 -31 -51 -38 -65 -7
-14 -25 -44 -40 -68 -15 -24 -32 -53 -38 -65 -5 -12 -21 -40 -34 -62 -14 -22
-31 -51 -38 -65 -7 -14 -25 -44 -40 -68 -15 -24 -32 -53 -38 -65 -5 -12 -20
-38 -32 -59 -12 -20 -44 -74 -70 -120 -26 -45 -52 -90 -58 -98 -5 -8 -15 -26
-22 -40 -7 -14 -25 -44 -40 -68 -15 -24 -32 -53 -38 -65 -5 -12 -21 -40 -34
-62 -14 -22 -31 -51 -38 -65 -7 -14 -25 -44 -40 -68 -15 -24 -32 -53 -38 -65
-5 -12 -21 -40 -34 -62 -14 -22 -31 -51 -38 -65 -7 -14 -25 -44 -40 -68 -15
-24 -32 -53 -38 -65 -14 -30 -39 -73 -72 -125 -15 -24 -32 -53 -38 -65 -5 -12
-21 -40 -34 -62 -14 -22 -31 -51 -38 -65 -7 -14 -24 -43 -38 -65 -25 -39 -45
-74 -71 -125 -7 -14 -20 -36 -30 -49 -10 -13 -15 -27 -12 -32 8 -14 1761 -12
1770 2 4 7 21 9 40 6 19 -3 36 -1 40 4 3 6 12 8 20 5 7 -3 16 -1 19 5 4 5 10
7 15 4 5 -3 20 0 32 7 13 6 29 13 37 14 8 2 27 12 42 23 16 12 33 21 39 21 24
0 187 176 219 238 18 34 29 62 25 62 -3 0 -1 7 6 15 7 8 9 15 5 15 -4 0 -2 6
4 13 6 8 8 17 4 20 -3 4 -1 13 6 20 6 8 9 22 5 30 -3 9 -3 21 1 26 3 6 6 391
5 855 0 599 3 847 10 851 6 4 9 14 6 22 -4 9 -1 22 5 30 7 7 9 16 6 20 -4 3
-2 12 4 20 6 7 8 13 4 13 -4 0 -2 7 5 15 7 8 10 15 6 15 -3 0 8 26 25 58 32
59 104 142 125 142 25 0 132 -163 141 -214 2 -11 8 -25 14 -33 6 -7 8 -13 4
-13 -4 0 -2 -6 4 -14 6 -7 9 -20 5 -29 -3 -8 0 -18 6 -22 7 -5 10 -249 10
-851 -1 -464 2 -849 5 -855 4 -5 4 -21 1 -34 -3 -13 -1 -27 4 -30 6 -4 8 -11
4 -16 -3 -5 0 -16 6 -24 7 -8 9 -15 6 -15 -4 0 -1 -10 6 -22 6 -13 13 -29 14
-37 2 -8 12 -27 23 -42 12 -16 21 -32 21 -37 0 -29 188 -202 219 -202 5 0 14
-7 21 -15 7 -9 15 -13 18 -11 2 3 14 0 26 -6 11 -7 24 -13 29 -14 4 -1 9 -3
12 -4 3 -1 9 -3 14 -4 5 0 12 -4 16 -8 4 -4 13 -4 20 -2 7 3 16 1 19 -5 4 -5
21 -7 40 -4 19 3 36 1 40 -6 9 -14 1762 -16 1770 -2 3 5 -2 19 -12 32 -10 13
-23 35 -30 49 -26 51 -46 86 -71 125 -14 22 -31 51 -38 65 -7 14 -17 32 -22
40 -6 8 -32 53 -58 98 -26 46 -58 100 -70 120 -12 21 -27 47 -32 59 -6 12 -23
41 -38 65 -15 24 -33 54 -40 68 -7 14 -24 43 -38 65 -13 22 -29 50 -34 62 -6
12 -23 41 -38 65 -15 24 -33 54 -40 68 -7 14 -24 43 -38 65 -13 22 -29 50 -34
62 -6 12 -23 41 -38 65 -33 52 -58 95 -72 125 -6 12 -23 41 -38 65 -15 24 -33
54 -40 68 -7 14 -24 43 -38 65 -13 22 -29 50 -34 62 -6 12 -23 41 -38 65 -15
24 -33 54 -40 68 -7 14 -24 43 -38 65 -13 22 -29 50 -34 62 -6 12 -23 41 -38
65 -15 24 -33 54 -40 68 -7 14 -17 32 -22 40 -6 8 -32 53 -58 98 -26 46 -58
100 -70 120 -12 21 -27 47 -32 59 -6 12 -23 41 -38 65 -15 24 -33 54 -40 68
-7 14 -24 43 -38 65 -13 22 -29 50 -34 62 -6 12 -23 41 -38 65 -15 24 -33 54
-40 68 -7 14 -17 32 -22 40 -6 8 -32 53 -58 98 -26 46 -58 100 -70 120 -12 21
-27 47 -32 59 -6 12 -23 41 -38 65 -15 24 -33 54 -40 68 -7 14 -24 43 -38 65
-13 22 -29 50 -34 62 -6 12 -23 41 -38 65 -15 24 -33 54 -40 68 -7 14 -24 43
-38 65 -13 22 -29 50 -34 62 -6 12 -23 41 -38 65 -33 52 -58 95 -72 125 -6 12
-23 41 -38 65 -15 24 -33 54 -40 68 -7 14 -24 43 -38 65 -13 22 -29 50 -34 62
-6 12 -23 41 -38 65 -15 24 -33 54 -40 68 -7 14 -24 43 -38 65 -13 22 -29 51
-35 64 -6 13 -23 43 -38 65 -16 23 -31 49 -35 59 -14 38 -45 19 -87 -55z m77
-255 c7 -10 20 -31 28 -48 8 -16 26 -48 40 -70 13 -22 29 -50 34 -62 6 -12 23
-41 38 -65 15 -24 33 -54 40 -68 7 -14 17 -32 22 -40 6 -8 32 -53 58 -98 26
-46 58 -100 70 -120 12 -21 27 -47 32 -59 6 -12 23 -41 38 -65 15 -24 33 -54
40 -68 7 -14 24 -43 38 -65 13 -22 29 -50 34 -62 6 -12 23 -41 38 -65 15 -24
33 -54 40 -68 7 -14 24 -43 38 -65 13 -22 29 -50 34 -62 6 -12 23 -41 38 -65
33 -52 58 -95 72 -125 6 -12 23 -41 38 -65 15 -24 33 -54 40 -68 7 -14 24 -43
38 -65 13 -22 29 -50 34 -62 6 -12 23 -41 38 -65 15 -24 33 -54 40 -68 7 -14
24 -43 38 -65 13 -22 29 -50 34 -62 6 -12 23 -41 38 -65 33 -52 58 -95 72
-125 6 -12 23 -41 38 -65 15 -24 33 -54 40 -68 7 -14 24 -43 38 -65 13 -22 29
-50 34 -62 6 -12 23 -41 38 -65 15 -24 33 -54 40 -68 7 -14 24 -43 38 -65 13
-22 29 -50 34 -62 6 -12 23 -41 38 -65 15 -24 33 -54 40 -68 7 -14 17 -32 22
-40 6 -8 32 -53 58 -98 26 -46 58 -100 70 -120 12 -21 27 -47 32 -59 6 -12 23
-41 38 -65 15 -24 33 -54 40 -68 7 -14 24 -43 38 -65 13 -22 29 -50 34 -62 6
-12 23 -41 38 -65 15 -24 33 -54 40 -68 7 -14 24 -43 38 -65 13 -22 29 -50 34
-62 6 -12 23 -41 38 -65 34 -54 58 -96 73 -127 6 -13 24 -44 40 -68 17 -24 30
-48 30 -53 0 -9 -1426 -19 -1445 -10 -5 2 -14 5 -20 5 -5 1 -23 7 -39 13 -16
7 -36 14 -45 16 -59 11 -176 97 -230 169 -34 46 -82 128 -87 150 -1 4 -3 9 -4
12 -1 3 -3 8 -4 13 -1 4 -5 13 -9 20 -5 6 -6 16 -2 21 3 5 0 13 -6 16 -6 4 -8
22 -4 45 4 23 2 41 -4 45 -14 8 -15 281 -1 290 6 4 8 11 5 16 -4 5 5 9 19 9
25 0 26 2 26 70 0 68 -1 70 -26 70 -14 0 -23 4 -19 9 3 5 1 12 -5 16 -13 8
-14 614 -1 634 7 11 13 11 32 -3 13 -9 27 -16 31 -16 10 0 10 170 1 170 -5 0
-19 10 -33 21 -14 11 -18 17 -10 13 8 -4 5 4 -8 18 -22 25 -23 32 -21 160 1
74 -1 140 -5 146 -4 7 -4 17 -1 22 4 6 1 17 -5 25 -7 8 -9 15 -5 15 4 0 2 7
-5 15 -7 8 -9 15 -5 15 4 0 2 7 -5 15 -7 8 -9 15 -5 15 4 0 2 6 -4 14 -7 8
-14 24 -16 36 -2 13 -10 30 -18 39 -7 9 -19 28 -26 43 -37 73 -186 208 -230
208 -21 0 -71 -33 -135 -90 -45 -40 -179 -250 -159 -250 3 0 0 -7 -7 -15 -7
-8 -9 -15 -5 -15 4 0 2 -6 -4 -13 -6 -8 -8 -17 -4 -20 3 -4 0 -13 -6 -21 -7
-8 -10 -20 -6 -26 3 -5 3 -15 -1 -22 -4 -6 -6 -71 -5 -144 2 -86 -1 -134 -8
-139 -6 -3 -9 -10 -6 -15 7 -11 -20 -31 -36 -28 -11 2 -15 -19 -17 -96 l-4
-99 26 16 c14 10 30 17 36 17 14 0 14 -636 0 -645 -6 -4 -8 -11 -5 -16 4 -5
-3 -9 -14 -9 -19 0 -21 -6 -21 -70 0 -64 2 -70 21 -70 11 0 18 -4 14 -9 -3 -5
-1 -12 5 -16 14 -9 13 -302 -1 -311 -6 -3 -8 -17 -4 -31 3 -14 1 -31 -5 -38
-6 -7 -10 -17 -9 -21 1 -5 0 -12 -1 -16 -1 -5 -4 -12 -5 -18 -1 -5 -4 -12 -5
-15 -1 -3 -3 -8 -5 -12 -12 -43 -65 -131 -108 -179 -46 -50 -178 -143 -197
-137 -3 0 -14 -4 -25 -10 -11 -6 -24 -10 -29 -9 -4 2 -14 -2 -20 -8 -7 -5 -16
-7 -19 -3 -4 3 -12 2 -19 -3 -17 -12 -1448 -6 -1448 6 0 5 13 29 30 53 16 24
34 55 40 68 6 13 21 40 33 61 12 20 44 74 70 120 26 45 52 90 58 98 5 8 15 26
22 40 7 14 25 44 40 68 15 24 32 53 38 65 5 12 21 40 34 62 14 22 31 51 38 65
7 14 25 44 40 68 15 24 32 53 38 65 5 12 21 40 34 62 14 22 31 51 38 65 7 14
25 44 40 68 15 24 32 53 38 65 5 12 20 38 32 59 12 20 44 74 70 120 26 45 52
90 58 98 5 8 15 26 22 40 7 14 25 44 40 68 15 24 32 53 38 65 5 12 21 40 34
62 14 22 31 51 38 65 7 14 25 44 40 68 15 24 32 53 38 65 5 12 21 40 34 62 14
22 31 51 38 65 7 14 25 44 40 68 15 24 32 53 38 65 14 30 39 73 72 125 15 24
32 53 38 65 5 12 21 40 34 62 14 22 31 51 38 65 7 14 25 44 40 68 15 24 32 53
38 65 5 12 21 40 34 62 14 22 31 51 38 65 7 14 25 44 40 68 15 24 32 53 38 65
5 12 21 40 34 62 14 22 31 51 38 65 7 14 25 44 40 68 15 24 32 53 38 65 14 30
39 73 72 125 15 24 32 53 38 65 5 12 21 40 34 62 14 22 31 51 38 65 7 14 25
44 40 68 15 24 32 53 38 65 5 12 21 40 34 62 14 22 31 51 38 65 7 14 25 44 40
68 15 24 32 53 38 65 5 12 21 40 34 62 14 22 27 46 31 53 8 16 14 15 31 -5z"/>
<path d="M9170 10604 c-74 -52 -144 -99 -155 -104 -11 -4 -60 -36 -109 -69
-48 -34 -90 -61 -93 -61 -3 0 -54 -34 -114 -75 -60 -41 -113 -75 -118 -75 -13
0 -48 -42 -70 -85 -53 -104 -69 -132 -88 -164 -12 -19 -20 -38 -17 -43 3 -4
225 -8 494 -8 315 0 491 -4 495 -10 10 -16 42 -12 49 6 3 9 6 42 6 74 0 32 -3
65 -6 74 -7 18 -39 22 -49 6 -8 -12 -725 -14 -725 -2 0 11 33 42 44 42 5 0 57
34 117 75 60 41 112 75 115 75 3 0 39 24 81 53 42 28 96 63 118 77 23 14 74
45 113 70 l72 45 -3 94 c-1 53 -6 95 -12 97 -5 1 -71 -41 -145 -92z"/>
<path d="M10685 10694 c-10 -4 -5 -188 5 -197 16 -13 99 -67 104 -67 3 0 55
-34 115 -75 60 -41 111 -75 114 -75 3 0 48 -29 100 -65 52 -36 98 -65 102 -65
13 0 105 -71 105 -81 0 -13 -707 -12 -715 1 -10 16 -42 12 -49 -6 -3 -9 -6
-42 -6 -74 0 -32 3 -65 6 -74 7 -18 39 -22 49 -6 4 6 178 10 489 10 265 0 485
3 489 6 3 4 -1 20 -11 37 -9 17 -31 55 -49 86 -17 31 -41 75 -52 98 -18 38
-81 95 -121 111 -8 3 -56 34 -106 69 -51 35 -94 63 -98 63 -3 0 -55 34 -115
75 -60 41 -112 75 -116 75 -5 0 -82 53 -220 150 -5 4 -14 6 -20 4z"/>
<path d="M9345 10541 c-3 -5 -1 -12 5 -16 5 -3 10 1 10 9 0 18 -6 21 -15 7z"/>
<path d="M9490 10064 c0 -12 3 -14 13 -6 7 6 37 12 67 15 54 3 54 3 -12 5 -57
2 -68 -1 -68 -14z"/>
<path d="M10440 10073 c30 -3 60 -9 67 -15 10 -8 13 -6 13 6 0 13 -11 16 -67
14 -67 -2 -67 -2 -13 -5z"/>
<path d="M9490 9916 c0 -13 11 -16 68 -14 66 2 66 2 12 5 -30 3 -60 9 -67 15
-10 8 -13 6 -13 -6z"/>
<path d="M10505 9921 c-6 -6 -35 -12 -65 -14 -55 -3 -54 -3 13 -5 54 -2 67 1
67 13 0 17 -3 18 -15 6z"/>
<path d="M9330 7455 l0 -665 75 0 75 0 0 431 0 430 47 -68 c25 -37 66 -95 90
-128 58 -80 237 -332 294 -414 56 -81 78 -88 114 -34 14 21 41 61 60 88 20 28
51 73 70 100 20 28 51 73 70 100 20 28 51 73 70 100 20 28 51 73 70 100 20 28
51 74 71 103 19 28 39 52 44 52 6 0 10 -159 10 -430 l0 -430 65 0 65 0 0 666
c0 744 5 697 -67 589 -18 -27 -49 -72 -68 -100 -62 -88 -105 -149 -138 -196
-189 -273 -363 -518 -367 -519 -6 0 -143 191 -301 420 -29 41 -72 102 -96 135
-89 122 -195 271 -215 303 -11 17 -24 32 -29 32 -5 0 -9 -277 -9 -665z"/>
<path d="M5908 8087 c-24 -36 -59 -107 -53 -107 3 0 -13 -34 -36 -75 -22 -41
-38 -75 -35 -75 3 0 -13 -34 -35 -75 -23 -41 -38 -75 -35 -75 3 0 -10 -29 -30
-65 -20 -36 -33 -65 -30 -65 4 0 -12 -34 -35 -75 -22 -41 -38 -75 -35 -75 3 0
-13 -34 -35 -75 -23 -41 -38 -75 -35 -75 3 0 -10 -29 -30 -65 -20 -36 -33 -65
-30 -65 4 0 -12 -34 -35 -75 -22 -41 -38 -75 -35 -75 3 0 -10 -29 -30 -64 -19
-36 -37 -76 -40 -90 l-4 -26 85 0 c84 0 85 0 100 30 9 17 13 30 11 30 -3 0 13
34 35 75 23 41 38 75 35 75 -3 0 10 29 30 65 20 36 33 65 30 65 -3 0 13 34 35
75 23 41 38 75 35 75 -3 0 10 29 30 65 20 36 33 65 30 65 -3 0 13 34 35 75 23
41 38 75 35 75 -3 0 8 24 24 54 17 30 33 64 35 77 3 13 11 29 20 36 8 7 13 10
10 7 -2 -4 5 -25 17 -48 11 -22 20 -42 19 -44 -1 -2 9 -23 24 -47 14 -25 23
-45 19 -45 -3 0 6 -20 20 -45 15 -25 24 -45 20 -45 -3 0 6 -20 20 -45 15 -25
24 -45 21 -45 -3 0 1 -13 10 -30 8 -16 15 -31 14 -32 -1 -2 7 -21 18 -43 12
-22 21 -42 20 -45 0 -3 10 -25 23 -50 13 -25 21 -45 19 -45 -2 0 9 -21 24 -47
15 -27 25 -48 21 -48 -3 0 6 -20 20 -45 15 -25 24 -45 20 -45 -3 0 6 -20 20
-45 15 -25 24 -45 21 -45 -3 0 1 -13 10 -30 15 -29 17 -30 94 -30 90 0 101 9
70 59 -10 17 -16 31 -14 31 3 0 -3 17 -14 38 -10 20 -20 42 -20 47 -1 6 -13
29 -27 53 -14 23 -22 42 -19 42 3 0 -1 13 -10 30 -8 16 -16 33 -16 37 0 5 -11
27 -25 51 -14 23 -22 42 -19 42 3 0 -1 13 -10 30 -8 16 -15 31 -14 32 1 2 -8
23 -21 48 -13 25 -21 45 -19 45 2 0 -9 21 -24 48 -15 26 -25 47 -22 47 3 0 -1
13 -10 30 -8 16 -15 31 -14 32 1 2 -8 23 -21 48 -13 25 -23 47 -22 50 1 3 -10
24 -24 48 -14 23 -22 42 -19 42 3 0 -1 13 -10 30 -8 16 -15 32 -14 35 0 3 -11
26 -26 50 -14 25 -23 45 -20 45 3 0 -1 13 -10 30 -8 16 -15 31 -14 32 1 2 -8
23 -21 48 -13 25 -22 46 -21 48 3 4 -29 61 -38 66 -5 3 -15 -4 -23 -17z"/>
<path d="M12080 7451 l0 -661 70 0 70 0 0 450 c0 248 3 450 8 449 4 0 187
-216 406 -480 220 -263 403 -479 408 -479 4 0 8 297 8 660 l0 660 -65 0 -65 0
0 -451 c0 -306 -3 -450 -10 -447 -6 2 -189 217 -408 478 -218 260 -403 476
-409 478 -10 3 -13 -133 -13 -657z"/>
<path d="M8113 8053 l-263 -3 0 -630 0 -630 65 0 65 0 2 553 3 552 185 5 c102
3 191 1 198 -4 6 -5 12 -5 12 -1 0 4 7 2 15 -5 8 -7 15 -10 15 -6 0 18 105
-62 131 -100 16 -24 27 -44 23 -44 -3 0 -2 -6 3 -12 8 -11 10 -72 3 -80 -1 -2
-3 -11 -5 -21 -8 -42 -133 -151 -161 -140 -7 2 -15 -1 -19 -6 -3 -6 -11 -9
-16 -6 -5 4 -15 3 -21 -2 -7 -4 -83 -6 -169 -4 -86 2 -159 -1 -162 -6 -3 -4
118 -158 270 -342 l274 -334 102 2 c56 1 102 3 103 4 1 1 -92 116 -208 255
-194 236 -208 255 -191 268 10 8 28 12 41 10 12 -2 25 1 28 6 3 4 9 6 14 3 5
-3 20 0 32 7 13 7 26 11 30 10 3 -1 12 5 18 13 7 8 18 15 25 15 17 0 125 108
125 125 0 7 7 18 15 25 8 7 13 16 10 20 -3 5 -1 11 5 15 6 4 8 11 5 16 -4 5
-3 14 0 19 9 15 10 154 1 169 -5 7 -5 15 -2 18 7 8 -21 58 -63 112 -32 41
-120 112 -138 112 -4 0 -18 7 -30 15 -13 8 -23 12 -23 8 0 -4 -6 -1 -14 5 -7
6 -20 9 -29 5 -8 -3 -18 -1 -22 5 -3 6 -9 10 -13 9 -4 -2 -125 -4 -269 -5z"/>
<path d="M7050 7420 l0 -630 70 0 70 0 0 630 0 630 -70 0 -70 0 0 -630z"/>
<path d="M11270 7420 l0 -630 75 0 75 0 0 630 0 630 -75 0 -75 0 0 -630z"/>
<path d="M13580 7980 l0 -70 243 -2 242 -3 3 -557 2 -558 70 0 70 0 0 548 c0
413 3 551 12 560 9 9 76 12 240 12 l228 0 0 70 0 70 -555 0 -555 0 0 -70z"/>
</g>
</svg>
